HIERARCHY
ROOT Hips
{
 OFFSET 0.000000 0.000000 0.000000
 CHANNELS 6 Xposition Yposition Zposition Yrotation Xrotation Zrotation
 JOINT Chest
 {
  OFFSET 0.000000 9.585900 0.002600
  CHANNELS 3 Yrotation Xrotation Zrotation
  JOINT Chest2
  {
   OFFSET 0.000000 9.601200 -0.005300
   CHANNELS 3 Yrotation Xrotation Zrotation
   JOINT Chest3
   {
    OFFSET 0.000000 9.561800 0.000000
    CHANNELS 3 Yrotation Xrotation Zrotation
    JOINT Chest4
    {
     OFFSET 0.000000 9.552100 0.000000
     CHANNELS 3 Yrotation Xrotation Zrotation
     JOINT Neck
     {
      OFFSET 0.000000 14.453000 0.000000
      CHANNELS 3 Yrotation Xrotation Zrotation
      JOINT Head
      {
       OFFSET 0.000000 8.936500 -0.011300
       CHANNELS 3 Yrotation Xrotation Zrotation
       End Site
       {
        OFFSET 0.000000 17.073600 -0.006000
       }
      }
     }
     JOINT RightCollar
     {
      OFFSET -2.921100 9.558500 0.000000
      CHANNELS 3 Yrotation Xrotation Zrotation
      JOINT RightShoulder
      {
       OFFSET -13.519700 0.000000 0.000000
       CHANNELS 3 Yrotation Xrotation Zrotation
       JOINT RightElbow
       {
        OFFSET 0.000000 -29.696600 0.000000
        CHANNELS 3 Yrotation Xrotation Zrotation
        JOINT RightWrist
        {
         OFFSET 0.000000 -24.004700 0.000000
         CHANNELS 3 Yrotation Xrotation Zrotation
         End Site
         {
          OFFSET 0.000000 -17.728500 0.000000
         }
        }
       }
      }
     }
     JOINT LeftCollar
     {
      OFFSET 2.921100 9.558500 0.000000
      CHANNELS 3 Yrotation Xrotation Zrotation
      JOINT LeftShoulder
      {
       OFFSET 13.519700 0.000000 0.000000
       CHANNELS 3 Yrotation Xrotation Zrotation
       JOINT LeftElbow
       {
        OFFSET 0.000000 -29.696600 0.000000
        CHANNELS 3 Yrotation Xrotation Zrotation
        JOINT LeftWrist
        {
         OFFSET 0.000000 -24.004700 0.000000
         CHANNELS 3 Yrotation Xrotation Zrotation
         End Site
         {
          OFFSET 0.000000 -17.728500 0.000000
         }
        }
       }
      }
     }
    }
   }
  }
 }
 JOINT RightHip
 {
  OFFSET -7.771700 -0.012900 -0.001300
  CHANNELS 3 Yrotation Xrotation Zrotation
  JOINT RightKnee
  {
   OFFSET 0.000000 -40.869800 0.001200
   CHANNELS 3 Yrotation Xrotation Zrotation
   JOINT RightAnkle
   {
    OFFSET 0.000000 -39.717900 0.002100
    CHANNELS 3 Yrotation Xrotation Zrotation
    JOINT RightToe
    {
     OFFSET 0.000000 -4.965400 11.033500
     CHANNELS 3 Yrotation Xrotation Zrotation
     End Site
     {
      OFFSET 0.000000 -1.423100 5.872300
     }
    }
   }
  }
 }
 JOINT LeftHip
 {
  OFFSET 7.771700 -0.012900 -0.001300
  CHANNELS 3 Yrotation Xrotation Zrotation
  JOINT LeftKnee
  {
   OFFSET 0.000000 -40.869800 0.001200
   CHANNELS 3 Yrotation Xrotation Zrotation
   JOINT LeftAnkle
   {
    OFFSET 0.000000 -39.717900 0.002100
    CHANNELS 3 Yrotation Xrotation Zrotation
    JOINT LeftToe
    {
     OFFSET 0.000000 -4.965400 11.033500
     CHANNELS 3 Yrotation Xrotation Zrotation
     End Site
     {
      OFFSET 0.000000 -1.423100 5.872300
     }
    }
   }
  }
 }
}
MOTION
Frames: 9
Frame Time: 0.008333
-3.798142 55.082361 29.639046 177.000529 -31.528083 -10.364065 0.565378 12.576706 6.532481 0.159912 7.194663 2.595578 0.274501 9.008423 3.268356 0.165505 7.196360 2.597434 4.668274 19.248270 -4.217270 6.074960 -5.020923 -5.608756 0.586039 1.044544 -2.653848 -12.614107 -6.954220 3.844012 39.443569 -71.664713 -24.790014 8.333081 -6.080182 -19.296453 -10.886249 4.047880 -2.937403 4.513325 -4.860856 -4.800458 -67.238430 -74.197806 75.741687 12.471389 -17.976538 2.600101 -17.462970 -35.290101 7.916033 20.522553 85.750623 17.238839 0.834795 -15.731686 -0.157105 -0.041681 0.490802 -0.005866 -16.200735 -46.339063 18.648576 168.827427 78.852140 164.283978 -1.411801 -15.608939 0.116358 -1.115635 -2.854192 -0.501093
-3.797887 55.088281 29.635713 177.022792 -31.512998 -10.374269 0.569403 12.581193 6.549386 0.146817 7.184366 2.591695 0.294960 9.030323 3.289393 0.147702 7.173595 2.586761 4.678940 19.278026 -4.196785 6.114095 -4.921750 -5.545595 0.577905 1.095886 -2.626812 -12.617975 -7.017772 3.829892 39.498007 -71.672854 -24.881496 8.359277 -5.935278 -19.145023 -10.887244 4.085880 -2.931760 4.511080 -4.853330 -4.833895 -67.334332 -74.170663 75.889407 12.399899 -17.941540 2.646281 -17.482514 -35.299467 7.919011 20.572011 85.760089 17.291816 0.833291 -15.747878 -0.166118 -0.042596 0.494487 -0.001115 -16.232296 -46.352702 18.654262 168.770927 78.844971 164.223925 -1.428312 -15.604306 0.120320 -1.112117 -2.860558 -0.501148
-3.797780 55.093799 29.633104 177.036284 -31.502556 -10.375262 0.567654 12.581830 6.552207 0.162276 7.194737 2.605190 0.277861 9.024130 3.283705 0.161557 7.187565 2.601474 4.737815 19.397144 -4.111184 6.089804 -4.924748 -5.552174 0.560479 1.127448 -2.612613 -12.590126 -7.062354 3.848922 39.540268 -71.764625 -25.036449 8.417908 -5.766832 -18.952591 -10.905135 4.076769 -2.937793 4.508755 -4.828994 -4.838916 -67.508275 -74.104425 76.110316 12.347210 -17.983387 2.621701 -17.479875 -35.311770 7.909380 20.698532 85.767868 17.431163 0.824564 -15.758396 -0.169818 -0.040887 0.493856 -0.001802 -16.243244 -46.362139 18.646452 168.728403 78.843379 164.183067 -1.445077 -15.607861 0.122195 -1.105481 -2.859123 -0.499507
-3.796821 55.098492 29.632533 177.055173 -31.487258 -10.381135 0.558766 12.580121 6.555538 0.184434 7.234311 2.629258 0.254919 8.989940 3.268396 0.191252 7.251257 2.644236 4.743182 19.422993 -4.088669 6.092163 -4.892973 -5.532830 0.527779 1.075736 -2.643168 -12.481703 -7.010414 3.924289 39.684645 -71.872248 -25.345135 8.461326 -5.656318 -18.790723 -10.933757 4.010110 -2.958671 4.502482 -4.794816 -4.831131 -67.786531 -74.000132 76.434471 12.332454 -18.062060 2.558481 -17.494230 -35.326572 7.909923 20.838685 85.775146 17.576695 0.816658 -15.767823 -0.174412 -0.046049 0.493089 -0.003750 -16.260553 -46.377690 18.639359 168.684251 78.842212 164.146265 -1.457630 -15.611367 0.120924 -1.100286 -2.855120 -0.498335
-3.794469 55.103086 29.633303 177.062946 -31.475529 -10.386912 0.576026 12.604688 6.580828 0.165425 7.204327 2.615320 0.269474 9.019020 3.288739 0.184660 7.239224 2.643332 4.772029 19.479134 -4.045337 6.105687 -4.837212 -5.499071 0.521460 1.083026 -2.646245 -12.436796 -6.984584 3.959705 39.611210 -72.029394 -25.365687 8.503368 -5.573701 -18.613258 -10.895346 4.093921 -2.926122 4.451564 -4.870044 -4.870457 -68.073105 -73.840975 76.760455 12.330689 -18.162843 2.488652 -17.501177 -35.338813 7.919733 20.947439 85.780788 17.689473 0.809770 -15.773704 -0.178750 -0.048792 0.492040 -0.004445 -16.278282 -46.392392 18.641303 168.644824 78.838310 164.110973 -1.452311 -15.604174 0.118476 -1.106311 -2.862508 -0.499939
-3.791495 55.108055 29.634565 177.066824 -31.471232 -10.392241 0.575630 12.604838 6.587290 0.173941 7.220585 2.629113 0.288025 9.040917 3.317745 0.173465 7.222776 2.633472 4.790626 19.534500 -4.009096 6.117653 -4.775098 -5.464120 0.508451 1.115151 -2.641169 -12.420590 -6.973512 3.986599 39.517811 -72.236521 -25.336359 8.537507 -5.510309 -18.419036 -10.890902 4.118832 -2.921163 4.426146 -4.839084 -4.848406 -68.557062 -73.720041 77.271503 12.336446 -18.272773 2.423278 -17.494748 -35.345184 7.926881 21.016408 85.785417 17.767009 0.803102 -15.776817 -0.180685 -0.051192 0.490162 -0.005522 -16.282440 -46.401778 18.636332 168.594817 78.834348 164.071145 -1.442550 -15.595804 0.115181 -1.116218 -2.871455 -0.501597
-3.790648 55.111066 29.639411 177.080024 -31.446851 -10.389427 0.576041 12.597474 6.597372 0.175407 7.223145 2.635224 0.272330 9.026938 3.304329 0.190409 7.244150 2.657827 4.808191 19.597324 -3.972679 6.128593 -4.706212 -5.429386 0.493258 1.195389 -2.615114 -12.436944 -6.997818 4.003056 39.498642 -72.480168 -25.344721 8.558698 -5.461539 -18.210196 -10.886079 4.140844 -2.914528 4.414121 -4.804591 -4.814522 -69.076085 -73.622090 77.787825 12.342279 -18.377677 2.362634 -17.502829 -35.376497 7.927535 21.053803 85.794403 17.807993 0.803721 -15.777550 -0.181391 -0.044007 0.486278 -0.010774 -16.293642 -46.432072 18.623493 168.538744 78.837836 164.024030 -1.447758 -15.591638 0.113036 -1.115875 -2.867817 -0.501044
-3.788974 55.115201 29.644108 177.080019 -31.434306 -10.384668 0.591581 12.621316 6.624675 0.168685 7.206533 2.626496 0.275529 9.030091 3.311858 0.177957 7.225524 2.641335 4.849766 19.688585 -3.912391 6.139279 -4.630930 -5.397085 0.491552 1.226746 -2.606272 -12.475609 -6.932906 4.042627 39.654416 -72.733950 -25.493834 8.572657 -5.427448 -17.996895 -10.859849 4.182389 -2.890429 4.421811 -4.780700 -4.782838 -69.580024 -73.548929 78.251740 12.344427 -18.465158 2.303045 -17.494385 -35.397188 7.932399 21.006488 85.802553 17.764800 0.801747 -15.774438 -0.178072 -0.042704 0.483167 -0.012629 -16.294665 -46.449939 18.616220 168.500760 78.840501 163.994829 -1.457701 -15.584110 0.114440 -1.108127 -2.867771 -0.505012
-3.787627 55.119813 29.649384 177.081165 -31.423617 -10.379847 0.591433 12.619769 6.626859 0.179591 7.220751 2.641669 0.292180 9.065252 3.350606 0.168061 7.197752 2.619109 4.859076 19.762681 -3.878746 6.150180 -4.550576 -5.369947 0.467358 1.205404 -2.631031 -12.524911 -6.833776 4.086196 40.013609 -72.981286 -25.823069 8.590630 -5.406501 -17.792177 -10.852972 4.190340 -2.882199 4.449151 -4.751592 -4.742673 -70.083733 -73.521081 78.679317 12.344656 -18.538196 2.241495 -17.495939 -35.413498 7.939133 20.992004 85.806655 17.747966 0.798622 -15.773351 -0.175866 -0.041846 0.483149 -0.014677 -16.298717 -46.464313 18.607846 168.468084 78.846847 163.969513 -1.462847 -15.578892 0.107176 -1.103159 -2.864033 -0.502924
